<svg xmlns="http://www.w3.org/2000/svg" width="480" height="380" viewBox="0 0 480 380"><rect width="100%" height="100%" fill="#DDDDDD"/><path fill="#999999" d="M108.43 184.435v17.02q1.55 1.89 3.38 2.66 1.83.78 3.98.78 2.07 0 3.74-.78 1.66-.77 2.83-2.37 1.16-1.59 1.79-4.01t.63-5.72q0-3.33-.54-5.64-.53-2.31-1.53-3.75-1-1.45-2.43-2.11-1.42-.67-3.23-.67-2.85 0-4.85 1.2-2 1.21-3.77 3.39m-1.23-9.44.74 3.52q2.34-2.63 5.3-4.26 2.96-1.62 6.95-1.62 3.11 0 5.68 1.29 2.57 1.3 4.44 3.76t2.89 6.06q1.01 3.61 1.01 8.27 0 4.26-1.14 7.88-1.15 3.63-3.28 6.29-2.12 2.67-5.14 4.17-3.02 1.49-6.75 1.49-3.18 0-5.44-.98t-4.03-2.72v15.54h-9.14v-50.35h5.58q1.78 0 2.33 1.66m50.92-2.25q4.21 0 7.67 1.37 3.46 1.36 5.92 3.88t3.8 6.14q1.33 3.63 1.33 8.11 0 4.51-1.33 8.14-1.34 3.62-3.8 6.17-2.46 2.56-5.92 3.93-3.46 1.36-7.67 1.36-4.26 0-7.74-1.36-3.47-1.37-5.93-3.93-2.47-2.55-3.82-6.17-1.35-3.63-1.35-8.14 0-4.48 1.35-8.11 1.35-3.62 3.82-6.14 2.46-2.52 5.93-3.88 3.48-1.37 7.74-1.37m0 32.08q4.73 0 7.01-3.19 2.27-3.18 2.27-9.32t-2.27-9.36q-2.28-3.22-7.01-3.22-4.81 0-7.13 3.24-2.31 3.23-2.31 9.34 0 6.1 2.31 9.3 2.32 3.21 7.13 3.21m33.78-29.2.55 4.29q1.78-3.4 4.22-5.34t5.77-1.94q2.63 0 4.22 1.14l-.59 6.85q-.19.66-.54.94t-.94.28q-.56 0-1.65-.19-1.09-.18-2.13-.18-1.51 0-2.7.44-1.18.45-2.12 1.28-.95.83-1.67 2.02-.72 1.18-1.35 2.7v23.38h-9.14v-37.96h5.37q1.4 0 1.96.5.55.5.74 1.79m32.19 36.26q-4.96 0-7.61-2.79-2.64-2.8-2.64-7.72v-21.2h-3.89q-.74 0-1.25-.48-.52-.48-.52-1.44v-3.63l6.1-1 1.93-10.36q.18-.74.7-1.14.52-.41 1.33-.41h4.74v11.95h10.14v6.51h-10.14v20.58q0 1.77.87 2.77t2.38 1q.85 0 1.43-.2.57-.21 1-.43.42-.22.76-.43.33-.2.66-.2.41 0 .67.2.26.21.55.62l2.74 4.44q-2 1.66-4.59 2.51t-5.36.85m26.67-.59h-9.13v-31.08l-3.3-.52q-1.07-.22-1.72-.76-.65-.53-.65-1.53v-3.74h5.67v-2.81q0-3.26.98-5.85t2.81-4.4 4.46-2.77q2.62-.97 5.92-.97 2.62 0 4.88.71l-.18 4.58q-.04.52-.3.84-.26.31-.68.48-.43.16-.99.22-.55.06-1.18.06-1.63 0-2.9.35-1.28.35-2.17 1.22t-1.35 2.29q-.46 1.43-.46 3.54v2.51h9.88v6.51h-9.59zm31.53-38.55q4.22 0 7.68 1.37 3.46 1.36 5.92 3.88t3.79 6.14q1.33 3.63 1.33 8.11 0 4.51-1.33 8.14-1.33 3.62-3.79 6.17-2.46 2.56-5.92 3.93-3.46 1.36-7.68 1.36-4.26 0-7.73-1.36-3.48-1.37-5.94-3.93-2.46-2.55-3.81-6.17-1.35-3.63-1.35-8.14 0-4.48 1.35-8.11 1.35-3.62 3.81-6.14t5.94-3.88q3.47-1.37 7.73-1.37m0 32.08q4.73 0 7.01-3.19 2.28-3.18 2.28-9.32t-2.28-9.36-7.01-3.22q-4.81 0-7.12 3.24-2.32 3.23-2.32 9.34 0 6.1 2.32 9.3 2.31 3.21 7.12 3.21m25.82-48.51h9.14v54.98h-9.14zm18.58 17.02h9.17v37.96h-9.17zm10.43-11.06q0 1.18-.48 2.22-.48 1.03-1.28 1.81-.79.78-1.86 1.24-1.08.46-2.3.46-1.18 0-2.24-.46-1.05-.46-1.83-1.24-.77-.78-1.24-1.81-.46-1.04-.46-2.22 0-1.23.46-2.3.47-1.07 1.24-1.85.78-.78 1.83-1.24 1.06-.46 2.24-.46 1.22 0 2.3.46 1.07.46 1.86 1.24.8.78 1.28 1.85t.48 2.3m24.87 10.47q4.21 0 7.67 1.37 3.46 1.36 5.92 3.88t3.8 6.14q1.33 3.63 1.33 8.11 0 4.51-1.33 8.14-1.34 3.62-3.8 6.17-2.46 2.56-5.92 3.93-3.46 1.36-7.67 1.36-4.26 0-7.74-1.36-3.47-1.37-5.93-3.93-2.47-2.55-3.82-6.17-1.35-3.63-1.35-8.14 0-4.48 1.35-8.11 1.35-3.62 3.82-6.14 2.46-2.52 5.93-3.88 3.48-1.37 7.74-1.37m0 32.08q4.73 0 7.01-3.19 2.27-3.18 2.27-9.32t-2.27-9.36q-2.28-3.22-7.01-3.22-4.81 0-7.13 3.24-2.31 3.23-2.31 9.34 0 6.1 2.31 9.3 2.32 3.21 7.13 3.21"/></svg>