<svg xmlns="http://www.w3.org/2000/svg" xml:space="preserve" id="Layer_1" x="0" y="0" style="enable-background:new 0 0 600 400" version="1.1" viewBox="0 0 600 400"><style>.st1{fill:#999}</style><path d="M.5.5h599v399H.5z" style="fill:#ddd"/><g id="text"><path d="M185.6 200.9v20h-11.7v-56.8h22.2c3.1 0 6.1.4 9 1.4 2.5.8 4.8 2.2 6.7 3.9 1.8 1.7 3.3 3.7 4.2 6 1 2.4 1.5 4.9 1.4 7.5 0 2.6-.5 5.1-1.4 7.5-.9 2.2-2.4 4.1-4.2 5.7-2 1.6-4.3 2.9-6.7 3.6-2.9.9-6 1.3-9 1.3h-10.5zm0-9.5h10.5c1.5 0 2.9-.2 4.3-.6 1.1-.4 2.1-.9 3-1.7.8-.7 1.4-1.7 1.7-2.7.4-1.1.6-2.2.5-3.4 0-1.2-.2-2.4-.5-3.5-.4-1.1-.9-2.1-1.7-3-.8-.9-1.8-1.6-3-2.1-1.4-.6-2.8-.8-4.3-.8h-10.5v17.8zM248.5 189.3c-.6-.1-1.2-.1-2-.2s-1.4-.1-2-.1c-1.9-.1-3.7.3-5.4 1.1-1.3.7-2.4 1.8-3 3.2V221h-11.3v-42.2h10.7l.3 5c1-1.7 2.3-3.2 3.9-4.3 1.6-1 3.5-1.6 5.5-1.5.6 0 1.3.1 1.9.2.5.1 1.1.2 1.6.4l-.2 10.7zM252.2 199.4c0-2.9.4-5.8 1.3-8.6.8-2.5 2.2-4.8 3.9-6.8 1.7-1.9 3.9-3.5 6.3-4.5 2.7-1.1 5.6-1.7 8.5-1.6 2.9-.1 5.8.5 8.6 1.6 2.4 1 4.5 2.6 6.3 4.5 1.7 2 3.1 4.3 3.9 6.8.9 2.8 1.3 5.6 1.3 8.5v.8c0 2.9-.4 5.8-1.3 8.6-.8 2.5-2.1 4.8-3.9 6.8-1.7 1.9-3.9 3.5-6.3 4.5-5.5 2.2-11.6 2.2-17 0-2.4-1-4.5-2.6-6.3-4.5-1.7-2-3.1-4.3-3.9-6.8-.9-2.8-1.4-5.7-1.3-8.6v-.7zm11.3.8c0 1.6.1 3.3.5 4.8.3 1.4.8 2.7 1.5 4 1.4 2.4 4 3.7 6.8 3.6 1.4 0 2.8-.3 4-1 1.1-.6 2.1-1.5 2.7-2.6.7-1.2 1.3-2.5 1.5-3.9.3-1.6.5-3.2.5-4.8v-.8c0-1.6-.1-3.2-.5-4.7-.3-1.4-.8-2.7-1.5-4-.7-1.1-1.6-2-2.7-2.7-1.2-.7-2.6-1-4.1-1-1.4 0-2.8.3-4 1-1.1.7-2 1.6-2.7 2.7-.7 1.2-1.2 2.6-1.5 4-.3 1.6-.5 3.2-.5 4.7v.7zM311.1 178.7v44.6c0 2.1-.3 4.3-1 6.3-.6 1.7-1.6 3.3-2.8 4.6-1.3 1.3-2.8 2.3-4.5 2.8-2 .7-4 1-6.1 1-.9 0-1.9 0-2.8-.2-.9-.1-1.9-.3-2.8-.5v-8.9l1.8.3c.6.1 1.2.1 1.8.1 1.4.1 2.8-.4 3.8-1.3.9-.9 1.3-2.3 1.3-4.2v-44.6h11.3zm-12.2-10.9c0-1.6.6-3.1 1.7-4.2 2.7-2.2 6.6-2.2 9.3 0 1.1 1.1 1.7 2.6 1.7 4.2 0 .8-.1 1.6-.4 2.4-.3.7-.7 1.3-1.3 1.9-.6.5-1.3.9-2 1.2-1.7.6-3.5.6-5.2 0-.7-.3-1.4-.7-2-1.2-.5-.5-1-1.2-1.3-1.9-.3-.8-.5-1.6-.5-2.4zM339.4 221.8c-3 0-6-.5-8.8-1.6-2.5-1-4.7-2.5-6.6-4.4-1.8-1.9-3.2-4.1-4.1-6.5-1-2.6-1.4-5.3-1.4-8v-1.5c0-3 .4-6 1.4-8.8.8-2.5 2.2-4.9 3.9-6.9 1.7-1.9 3.8-3.5 6.2-4.5 2.6-1.1 5.4-1.6 8.2-1.6 2.8-.1 5.5.4 8 1.5 2.2 1 4.2 2.4 5.8 4.2 1.6 1.9 2.8 4.1 3.6 6.5.8 2.8 1.2 5.6 1.2 8.5v4.8h-26.9c.2 1.3.5 2.6 1.1 3.7.5 1.1 1.3 2.1 2.1 2.9.9.8 1.9 1.4 3.1 1.9 1.3.5 2.6.7 3.9.7 2 0 3.9-.4 5.7-1.2 1.8-.8 3.3-2 4.5-3.6l5.5 6.2c-.7 1-1.6 2-2.5 2.8-1.1 1-2.3 1.8-3.6 2.4-1.5.8-3.1 1.3-4.7 1.7-1.8.6-3.7.8-5.6.8zm-1.3-34.7c-1.1 0-2.2.2-3.2.6-.9.4-1.7 1-2.4 1.8s-1.2 1.8-1.6 2.8c-.4 1.1-.7 2.3-.9 3.6h15.7v-.9c0-1.1-.2-2.1-.5-3.1-.3-.9-.7-1.8-1.4-2.5-.6-.7-1.4-1.3-2.3-1.6-1-.5-2.2-.7-3.4-.7zM380.8 212.7c1 0 1.9-.1 2.8-.4.8-.3 1.6-.7 2.2-1.3.6-.5 1.1-1.2 1.5-2 .4-.8.6-1.7.6-2.6h10.6c0 2.1-.5 4.3-1.4 6.2-.9 1.9-2.2 3.5-3.7 4.9-1.6 1.4-3.5 2.5-5.5 3.2-2.2.8-4.5 1.2-6.9 1.1-3 .1-5.9-.5-8.6-1.7-2.3-1-4.4-2.6-6.1-4.5-1.7-2-2.9-4.3-3.6-6.8-.8-2.7-1.2-5.5-1.2-8.4v-1.1c0-2.8.4-5.7 1.2-8.4.7-2.5 2-4.8 3.6-6.8 1.7-2 3.7-3.5 6.1-4.6 2.7-1.2 5.6-1.7 8.5-1.7 2.4 0 4.8.4 7.1 1.2 2 .7 3.9 1.8 5.5 3.3 1.6 1.5 2.8 3.2 3.6 5.2.9 2.2 1.3 4.5 1.3 6.9h-10.6c0-1-.2-1.9-.5-2.9-.3-.9-.8-1.7-1.4-2.3-.6-.7-1.4-1.2-2.2-1.6-1-.4-2-.6-3-.6-1.4-.1-2.8.3-4 1-1.1.7-1.9 1.6-2.5 2.7-.6 1.2-1 2.6-1.2 3.9-.2 1.5-.3 3.1-.3 4.6v1.1c0 1.6.1 3.1.3 4.6.2 1.4.6 2.7 1.2 3.9.6 1.1 1.4 2 2.4 2.7 1.3.9 2.8 1.2 4.2 1.2zM418.5 168.3v10.4h7.2v8.3h-7.2v21.1c0 .7.1 1.5.3 2.2.1.5.4 1 .8 1.4.4.3.8.6 1.3.7.6.1 1.3.2 1.9.2.7 0 1.3 0 1.9-.1s1-.1 1.5-.2v8.6c-1 .3-2 .5-3.1.7-1.2.2-2.5.3-3.8.3-1.7 0-3.4-.2-5-.7-1.4-.4-2.7-1.2-3.8-2.2-1.1-1.1-1.9-2.4-2.4-3.9-.6-1.9-.9-3.8-.9-5.7V187H401v-8.3h6.2v-10.4h11.3z" class="st1"/></g></svg>