<svg width="44" height="64" viewBox="0 0 44 64" fill="none" xmlns="http://www.w3.org/2000/svg">
<g clip-path="url(#clip0_232_984)">
<path d="M22.0259 32.0007C22.0259 29.1717 23.1497 26.4586 25.1501 24.4582C27.1505 22.4578 29.8636 21.334 32.6925 21.334C35.5215 21.334 38.2346 22.4578 40.235 24.4582C42.2354 26.4586 43.3592 29.1717 43.3592 32.0007C43.3592 34.8296 42.2354 37.5427 40.235 39.5431C38.2346 41.5435 35.5215 42.6673 32.6925 42.6673C29.8636 42.6673 27.1505 41.5435 25.1501 39.5431C23.1497 37.5427 22.0259 34.8296 22.0259 32.0007Z" fill="#1ABCFE"/>
<path d="M0.692383 53.3327C0.692383 50.5037 1.81619 47.7906 3.81658 45.7902C5.81697 43.7898 8.53007 42.666 11.359 42.666H22.0257V53.3327C22.0257 56.1617 20.9019 58.8748 18.9015 60.8752C16.9011 62.8755 14.188 63.9993 11.359 63.9993C8.53007 63.9993 5.81697 62.8755 3.81658 60.8752C1.81619 58.8748 0.692383 56.1617 0.692383 53.3327Z" fill="#0ACF83"/>
<path d="M22.0259 0V21.3333H32.6925C35.5215 21.3333 38.2346 20.2095 40.235 18.2091C42.2354 16.2087 43.3592 13.4956 43.3592 10.6667C43.3592 7.83769 42.2354 5.12458 40.235 3.12419C38.2346 1.12381 35.5215 0 32.6925 0L22.0259 0Z" fill="#FF7262"/>
<path d="M0.692383 10.6667C0.692383 13.4956 1.81619 16.2087 3.81658 18.2091C5.81697 20.2095 8.53007 21.3333 11.359 21.3333H22.0257V0H11.359C8.53007 0 5.81697 1.12381 3.81658 3.12419C1.81619 5.12458 0.692383 7.83769 0.692383 10.6667Z" fill="#F24E1E"/>
<path d="M0.692383 32.0007C0.692383 34.8296 1.81619 37.5427 3.81658 39.5431C5.81697 41.5435 8.53007 42.6673 11.359 42.6673H22.0257V21.334H11.359C8.53007 21.334 5.81697 22.4578 3.81658 24.4582C1.81619 26.4586 0.692383 29.1717 0.692383 32.0007Z" fill="#A259FF"/>
</g>
<defs>
<clipPath id="clip0_232_984">
<rect width="42.6667" height="64" fill="white" transform="translate(0.692383)"/>
</clipPath>
</defs>
</svg>
