<svg width="64" height="64" viewBox="0 0 64 64" fill="none" xmlns="http://www.w3.org/2000/svg">
<path d="M56.2665 29.466L34.5332 7.73268C33.8665 7.06602 32.9332 6.66602 31.9998 6.66602C31.0665 6.66602 30.1332 7.06602 29.4665 7.73268L24.7998 12.3993L30.2665 17.866C30.7998 17.5993 31.3332 17.466 31.9998 17.466C34.2665 17.466 35.9998 19.1993 35.9998 21.466C35.9998 22.1327 35.8665 22.666 35.5998 23.1993L40.9332 28.5327C41.4665 28.266 41.9998 28.1327 42.6665 28.1327C44.9332 28.1327 46.6665 29.866 46.6665 32.1327C46.6665 34.3994 44.9332 36.1327 42.6665 36.1327C40.3998 36.1327 38.6665 34.3994 38.6665 32.1327C38.6665 31.466 38.7998 30.9327 39.0665 30.3993L33.7332 25.066C33.5998 25.066 33.4665 25.1993 33.3332 25.1993V39.066C34.9332 39.5993 35.9998 41.066 35.9998 42.7993C35.9998 45.066 34.2665 46.7993 31.9998 46.7993C29.7332 46.7993 27.9998 45.066 27.9998 42.7993C27.9998 41.066 29.0665 39.5993 30.6665 39.066V25.066C29.0665 24.5327 27.9998 23.066 27.9998 21.3327C27.9998 20.666 28.1332 20.1327 28.3998 19.5993L22.9332 14.1327L7.73317 29.466C7.0665 30.1327 6.6665 31.066 6.6665 31.9993C6.6665 32.9327 7.0665 33.866 7.73317 34.5327L29.4665 56.266C30.1332 56.9327 31.0665 57.3327 31.9998 57.3327C32.9332 57.3327 33.8665 56.9327 34.5332 56.266L56.2665 34.5327C56.9332 33.866 57.3332 32.9327 57.3332 31.9993C57.3332 31.066 56.9332 30.1327 56.2665 29.466Z" fill="#F4511E"/>
</svg>
