<?xml version="1.0" encoding="UTF-8" standalone="no"?>
<svg
   viewBox="0,0,256,256"
   width="50px"
   height="50px"
   fill-rule="nonzero"
   version="1.1"
   id="svg950"
   sodipodi:docname="github.svg"
   inkscape:version="1.1 (c68e22c387, 2021-05-23)"
   xmlns:inkscape="http://www.inkscape.org/namespaces/inkscape"
   xmlns:sodipodi="http://sodipodi.sourceforge.net/DTD/sodipodi-0.dtd"
   xmlns="http://www.w3.org/2000/svg"
   xmlns:svg="http://www.w3.org/2000/svg">
  <defs
     id="defs954" />
  <sodipodi:namedview
     id="namedview952"
     pagecolor="#ffffff"
     bordercolor="#666666"
     borderopacity="1.0"
     inkscape:pageshadow="2"
     inkscape:pageopacity="0.0"
     inkscape:pagecheckerboard="0"
     showgrid="false"
     inkscape:zoom="10.6"
     inkscape:cx="25.04717"
     inkscape:cy="25.04717"
     inkscape:window-width="1366"
     inkscape:window-height="715"
     inkscape:window-x="-8"
     inkscape:window-y="-8"
     inkscape:window-maximized="1"
     inkscape:current-layer="svg950" />
  <g
     fill="#666666"
     fill-rule="nonzero"
     stroke="none"
     stroke-width="1"
     stroke-linecap="butt"
     stroke-linejoin="miter"
     stroke-miterlimit="10"
     stroke-dasharray="none"
     stroke-dashoffset="0"
     font-family="none"
     font-weight="none"
     font-size="none"
     text-anchor="none"
     style="mix-blend-mode:normal"
     id="g948"
     transform="matrix(0.95652174,0,0,0.95652174,5.5652178,5.4356591)">
    <g
       transform="scale(5.12)"
       id="g946">
      <path
         d="M 17.791,46.836 C 18.502,46.53 19,45.823 19,45 v -5.4 c 0,-0.197 0.016,-0.402 0.041,-0.61 C 19.027,38.994 19.014,38.997 19,39 19,39 16,39 15.4,39 13.9,39 12.6,38.4 12,37.2 11.3,35.9 11,33.7 9.2,32.5 8.9,32.3 9.1,32 9.7,32 c 0.6,0.1 1.9,0.9 2.7,2 0.9,1.1 1.8,2 3.4,2 2.487,0 3.82,-0.125 4.622,-0.555 C 21.356,34.056 22.649,33 24,33 V 32.975 C 18.332,32.793 14.711,30.909 13.025,28 9.36,28.042 6.169,28.405 4.348,28.707 4.29,28.38 4.24,28.051 4.197,27.72 5.994,27.424 9.04,27.073 12.542,27.006 12.43,26.73 12.333,26.447 12.251,26.157 8.74,25.979 5.71,26.118 4.064,26.254 4.044,25.922 4.017,25.591 4.013,25.255 c 1.649,-0.135 4.597,-0.27 8.018,-0.111 -0.079,-0.5 -0.13,-1.011 -0.13,-1.543 0,-1.7 0.6,-3.5 1.7,-5 -0.5,-1.7 -1.2,-5.3 0.2,-6.6 2.7,0 4.6,1.3 5.5,2.1 C 21,13.4 22.9,13 25,13 c 2.1,0 4,0.4 5.6,1.1 0.9,-0.8 2.8,-2.1 5.5,-2.1 1.5,1.4 0.7,5 0.2,6.6 1.1,1.5 1.7,3.2 1.6,5 0,0.484 -0.045,0.951 -0.11,1.409 3.499,-0.172 6.527,-0.034 8.204,0.102 -0.002,0.337 -0.033,0.666 -0.051,0.999 -1.671,-0.138 -4.775,-0.28 -8.359,-0.089 -0.089,0.336 -0.197,0.663 -0.325,0.98 3.546,0.046 6.665,0.389 8.548,0.689 -0.043,0.332 -0.093,0.661 -0.151,0.987 C 43.744,28.371 40.485,28.013 36.777,27.995 35.112,30.873 31.557,32.75 26,32.969 V 33 c 2.6,0 5,3.9 5,6.6 V 45 c 0,0.823 0.498,1.53 1.209,1.836 C 41.37,43.804 48,35.164 48,25 48,12.318 37.683,2 25,2 12.317,2 2,12.318 2,25 2,35.164 8.63,43.804 17.791,46.836 Z"
         id="path944" />
    </g>
  </g>
</svg>
