<svg width="64" height="64" viewBox="0 0 64 64" fill="none" xmlns="http://www.w3.org/2000/svg">
<path d="M0 64V0H64V64H0Z" fill="#FFD600"/>
<path d="M41.8451 47.9066C43.0753 49.9049 44.4122 51.8195 47.2442 51.8195C49.6229 51.8195 50.8709 50.6373 50.8709 49.0018C50.8709 47.0444 49.5802 46.3493 46.9634 45.2098L45.5287 44.5982C41.3882 42.8418 38.6345 40.6409 38.6345 35.992C38.6345 31.7075 41.9145 28.4471 47.0398 28.4471C50.6896 28.4471 53.3118 29.7111 55.2033 33.0213L50.734 35.8782C49.7509 34.1218 48.6878 33.4302 47.0398 33.4302C45.358 33.4302 44.2931 34.4915 44.2931 35.8782C44.2931 37.592 45.3598 38.2853 47.822 39.3466L49.2567 39.9582C54.1367 42.0364 56.8887 44.1591 56.8887 48.9306C56.8887 54.072 52.8282 56.8898 47.3776 56.8898C42.046 56.8898 39.0185 54.2142 37.3331 50.9022L41.8451 47.9066ZM21.2478 48.0524C22.1474 49.6631 23.5145 50.9022 25.4807 50.9022C27.3616 50.9022 28.4442 50.1591 28.4442 47.2702V28.4453H34.3696V48.1804C34.3696 54.1662 30.8976 56.8898 25.8274 56.8898C21.246 56.8898 17.9394 53.7858 16.5918 50.9022L21.2478 48.0524Z" fill="#000001"/>
</svg>
