<svg width="57" height="64" viewBox="0 0 57 64" fill="none" xmlns="http://www.w3.org/2000/svg">
<g clip-path="url(#clip0_232_947)">
<path d="M28.9132 63.999C28.0552 63.999 27.2545 63.7658 26.5109 63.3576L18.9036 58.7507C17.7596 58.1093 18.3316 57.876 18.6748 57.7594C20.2191 57.2346 20.5051 57.1179 22.1067 56.1849C22.2782 56.0682 22.507 56.1265 22.6786 56.2432L28.5128 59.8004C28.7416 59.9171 29.0276 59.9171 29.1992 59.8004L52.0211 46.3297C52.2499 46.213 52.3643 45.9798 52.3643 45.6882V18.8051C52.3643 18.5135 52.2499 18.2803 52.0211 18.1636L29.1992 4.75126C28.9704 4.63463 28.6844 4.63463 28.5128 4.75126L5.69085 18.1636C5.46207 18.2803 5.34766 18.5718 5.34766 18.8051V45.6882C5.34766 45.9215 5.46207 46.213 5.69085 46.3297L11.9254 50.0035C15.3001 51.7529 17.4164 49.712 17.4164 47.6709V21.1377C17.4164 20.7878 17.7024 20.438 18.1028 20.438H21.0199C21.3631 20.438 21.7062 20.7295 21.7062 21.1377V47.6709C21.7062 52.2778 19.2467 54.9603 14.9569 54.9603C13.6414 54.9603 12.6118 54.9603 9.69468 53.5024L3.68893 50.0035C2.20179 49.1288 1.28662 47.4959 1.28662 45.7466V18.8634C1.28662 17.114 2.20179 15.4812 3.68893 14.6064L26.5109 1.13574C27.9409 0.319336 29.8856 0.319336 31.3155 1.13574L54.1374 14.6064C55.6246 15.4812 56.5398 17.114 56.5398 18.8634V45.7466C56.5398 47.4959 55.6246 49.1288 54.1374 50.0035L31.3155 63.4742C30.6291 63.7658 29.7712 63.999 28.9132 63.999Z" fill="#5FA04E"/>
<path d="M36.0058 45.5148C25.9961 45.5148 23.937 40.8496 23.937 36.8842C23.937 36.5344 24.223 36.1845 24.6233 36.1845H27.5977C27.9408 36.1845 28.2269 36.4177 28.2269 36.7676C28.6844 39.8582 30 41.3745 36.0629 41.3745C40.8675 41.3745 42.9267 40.2665 42.9267 37.6423C42.9267 36.1261 42.3547 35.0181 34.8617 34.26C28.6272 33.6186 24.7378 32.2191 24.7378 27.1456C24.7378 22.4221 28.6272 19.623 35.1478 19.623C42.4691 19.623 46.0725 22.1889 46.5301 27.7871C46.5301 27.9621 46.4729 28.137 46.3586 28.312C46.2442 28.4286 46.0725 28.5452 45.9009 28.5452H42.8695C42.5835 28.5452 42.2975 28.312 42.2403 28.0203C41.5539 24.813 39.7808 23.7634 35.0906 23.7634C29.8283 23.7634 29.1992 25.6295 29.1992 27.029C29.1992 28.7201 29.9428 29.245 37.0353 30.178C44.0706 31.111 47.3881 32.4523 47.3881 37.4674C47.3881 42.599 43.2127 45.5148 36.0058 45.5148Z" fill="#5FA04E"/>
</g>
<defs>
<clipPath id="clip0_232_947">
<rect width="56.32" height="64" fill="white" transform="translate(0.653809)"/>
</clipPath>
</defs>
</svg>
