<svg id="Layer_3" data-name="Layer 3" xmlns="http://www.w3.org/2000/svg" xmlns:xlink="http://www.w3.org/1999/xlink" viewBox="0 0 552.96 290.88"><defs><radialGradient id="radial-gradient" cx="259.5" cy="221.5" r="363.06" gradientTransform="translate(-93.5 -170.37)" gradientUnits="userSpaceOnUse"><stop offset="0" stop-color="#fff"/><stop offset="0.5" stop-color="#4c6b97"/><stop offset="1" stop-color="#231f20"/></radialGradient></defs><ellipse cx="276.48" cy="145.44" rx="276.48" ry="145.44" style="fill:url(#radial-gradient)"/><ellipse cx="276.48" cy="145.44" rx="265.68" ry="134.64" style="fill:#6181b6"/><path d="M450.32,350l13.18-67.83c3-15.31.5-26.73-7.35-33.94-7.61-7-20.51-10.38-39.46-10.38H393.86l6.54-33.6a4.32,4.32,0,0,0-4.24-5.15h-31.5a4.34,4.34,0,0,0-4.25,3.5l-14,72A40.48,40.48,0,0,0,337,253.81c-9.24-10.57-23.85-15.94-43.44-15.94H232.5a4.32,4.32,0,0,0-4.24,3.5L199.93,387.12a4.32,4.32,0,0,0,4.24,5.14h31.75a4.31,4.31,0,0,0,4.24-3.49L247,353.51h23.64c12.4,0,22.82-1.34,31-4a60.48,60.48,0,0,0,22.72-13.61,70,70,0,0,0,13.43-16.67l-5.66,29.13a4.31,4.31,0,0,0,4.24,5.14h31.5a4.32,4.32,0,0,0,4.24-3.49l15.55-80h21.61c9.21,0,11.91,1.84,12.64,2.63s2.05,3.25.5,11.24l-12.53,64.49a4.31,4.31,0,0,0,4.24,5.14h32A4.32,4.32,0,0,0,450.32,350Zm-146-56c-2,10.16-5.71,17.42-11.08,21.56s-14.2,6.33-26,6.33H253.16l10.18-52.36h18.19c13.36,0,18.75,2.86,20.91,5.26C305.44,278.09,306.07,284.73,304.28,294Z" transform="translate(-120.02 -161.06)" style="fill:#fff"/><path d="M585,253.81c-9.23-10.57-23.85-15.94-43.44-15.94H480.53a4.32,4.32,0,0,0-4.24,3.5L448,387.12a4.32,4.32,0,0,0,4.24,5.14H484a4.31,4.31,0,0,0,4.24-3.49L495,353.51h23.64c12.4,0,22.82-1.34,31-4a60.41,60.41,0,0,0,22.72-13.61,67.62,67.62,0,0,0,21.26-38.06C597.22,279.28,594.33,264.47,585,253.81ZM552.1,294c-2,10.16-5.71,17.42-11.09,21.56s-14.19,6.33-26,6.33H501l10.17-52.36h18.19c13.37,0,18.75,2.86,20.92,5.26C553.25,278.09,553.89,284.73,552.1,294Z" transform="translate(-120.02 -161.06)" style="fill:#fff"/><path d="M281.53,265.19q18.09,0,24.12,6.68t2.87,22.93q-3.28,16.92-12.69,24.16t-28.6,7.23H247.92l11.85-61ZM204.17,387.94h31.75l7.53-38.75h27.2q18,0,29.62-3.78a56,56,0,0,0,21.13-12.68A63.35,63.35,0,0,0,341.34,297q5-25.92-7.6-40.38t-40.19-14.46H232.5Z" transform="translate(-120.02 -161.06)" style="fill:#000004"/><path d="M364.66,203.44h31.5l-7.54,38.75h28.07q26.47,0,36.54,9.24t6,29.94l-13.18,67.82h-32l12.53-64.49q2.13-11-1.58-15t-15.8-4H384.05l-16.22,83.5h-31.5Z" transform="translate(-120.02 -161.06)" style="fill:#000004"/><path d="M529.34,265.19q18.1,0,24.13,6.68t2.87,22.93Q553,311.72,543.65,319t-28.6,7.23H495.73l11.86-61ZM452,387.94h31.75l7.54-38.75h27.19q18,0,29.62-3.78a56,56,0,0,0,21.14-12.68A63.26,63.26,0,0,0,589.15,297q5-25.92-7.59-40.38t-40.19-14.46H480.31Z" transform="translate(-120.02 -161.06)" style="fill:#000004"/></svg>