<svg width="71" height="64" viewBox="0 0 71 64" fill="none" xmlns="http://www.w3.org/2000/svg">
<g clip-path="url(#clip0_232_929)">
<path d="M35.6572 38.7715C39.3295 38.7715 42.3065 35.7394 42.3065 31.999C42.3065 28.2587 39.3295 25.2266 35.6572 25.2266C31.9848 25.2266 29.0078 28.2587 29.0078 31.999C29.0078 35.7394 31.9848 38.7715 35.6572 38.7715Z" fill="#087EA4"/>
<path d="M35.6569 47.2379C54.0186 47.2379 68.9037 40.4156 68.9037 31.9998C68.9037 23.584 54.0186 16.7617 35.6569 16.7617C17.2952 16.7617 2.41016 23.584 2.41016 31.9998C2.41016 40.4156 17.2952 47.2379 35.6569 47.2379Z" stroke="#087EA4" stroke-width="3"/>
<path d="M22.7003 39.6185C31.8812 55.8147 45.1246 65.5331 52.2803 61.3252C59.4361 57.1173 57.7944 40.5766 48.6136 24.3804C39.4328 8.18426 26.1893 -1.53415 19.0336 2.67374C11.8778 6.88162 13.5195 23.4224 22.7003 39.6185Z" stroke="#087EA4" stroke-width="3"/>
<path d="M22.7002 24.3806C13.5193 40.5768 11.8777 57.1175 19.0334 61.3254C26.1892 65.5333 39.4326 55.8148 48.6134 39.6187C57.7943 23.4225 59.4359 6.8818 52.2802 2.67392C45.1244 -1.53396 31.881 8.18445 22.7002 24.3806Z" stroke="#087EA4" stroke-width="3"/>
</g>
<defs>
<clipPath id="clip0_232_929">
<rect width="69.8182" height="64" fill="white" transform="translate(0.748047)"/>
</clipPath>
</defs>
</svg>
