<svg id="Logo" xmlns="http://www.w3.org/2000/svg" xmlns:xlink="http://www.w3.org/1999/xlink" viewBox="0 0 1024 1024"><defs><linearGradient id="linear-gradient" x1="285.98" y1="323.29" x2="-52.92" y2="524.68" gradientUnits="userSpaceOnUse"><stop offset="0" stop-color="#a56dcd"/><stop offset="0.13" stop-color="#9b5dc8"/><stop offset="0.52" stop-color="#8032b9"/><stop offset="0.82" stop-color="#6f17af"/><stop offset="1" stop-color="#690dac"/></linearGradient><linearGradient id="linear-gradient-2" x1="304.33" y1="353.69" x2="476.6" y2="353.69" gradientUnits="userSpaceOnUse"><stop offset="0" stop-color="#668a96"/><stop offset="0.44" stop-color="#386777"/><stop offset="1" stop-color="#013c51"/></linearGradient><linearGradient id="linear-gradient-3" x1="292.08" y1="685.22" x2="476.18" y2="685.22" xlink:href="#linear-gradient"/><linearGradient id="linear-gradient-4" x1="119.8" y1="670.32" x2="292.08" y2="670.32" gradientUnits="userSpaceOnUse"><stop offset="0" stop-color="#013c51"/><stop offset="0.56" stop-color="#386777"/><stop offset="1" stop-color="#668a96"/></linearGradient><linearGradient id="linear-gradient-5" x1="-3308.01" y1="546.79" x2="-3278.04" y2="516.82" gradientTransform="matrix(-1, 0, 0, 1, -2622.38, 0)" gradientUnits="userSpaceOnUse"><stop offset="0" stop-color="#690dac"/><stop offset="0.18" stop-color="#6f17af"/><stop offset="0.48" stop-color="#8032b9"/><stop offset="0.87" stop-color="#9b5dc8"/><stop offset="1" stop-color="#a56dcd"/></linearGradient><linearGradient id="linear-gradient-6" x1="-3593.08" y1="305.75" x2="-3593.08" y2="777.29" gradientTransform="matrix(-1, 0, 0, 1, -3044.93, 0)" xlink:href="#linear-gradient-5"/><linearGradient id="linear-gradient-7" x1="512.06" y1="708.72" x2="904.2" y2="708.72" xlink:href="#linear-gradient-2"/><linearGradient id="linear-gradient-8" x1="-2848.94" y1="471.11" x2="-2848.94" y2="747.11" gradientTransform="matrix(-1, 0, 0, 1, -1978.06, 0)" xlink:href="#linear-gradient"/><linearGradient id="linear-gradient-9" x1="512.06" y1="312.47" x2="904.2" y2="312.47" xlink:href="#linear-gradient-2"/></defs><circle cx="512" cy="512" r="498" style="fill:#f8fafc;stroke:#2c3532;stroke-miterlimit:10;stroke-width:28px"/><path d="M120.21,365.34,304.33,255.56V366.19L219.88,419.4Z" transform="translate(0 0)" style="fill:url(#linear-gradient)"/><path d="M304.33,366.19,476.6,451.81V342.15L304.33,255.56Z" transform="translate(0 0)" style="fill:url(#linear-gradient-2)"/><path d="M476.18,657.35,292.08,767.13V656.51l84.44-53.2Z" transform="translate(0 0)" style="fill:url(#linear-gradient-3)"/><path d="M292.08,657.82,119.8,572.19V681.85l172.28,86.59Z" transform="translate(0 0)" style="fill:url(#linear-gradient-4)"/><polygon points="298.42 459.95 298.42 459.93 120.21 365.34 120.21 471.76 297.99 562.74 297.99 562.77 476.18 657.35 476.18 550.94 298.42 459.95" style="fill:#1d1d1d"/><polygon points="705.2 471.11 638.56 548.57 639.91 596.34 713.39 521.39 705.2 471.11" style="fill:url(#linear-gradient-5)"/><polygon points="584.25 275.57 512.06 349.36 512.06 747.11 584.25 670.32 584.25 275.57" style="fill:url(#linear-gradient-6)"/><polygon points="837.57 747.11 512.06 747.11 584.25 670.32 904.2 670.32 837.57 747.11" style="fill:url(#linear-gradient-7)"/><polygon points="904.2 670.32 904.2 471.11 837.57 548.57 837.57 747.11 904.2 670.32" style="fill:url(#linear-gradient-8)"/><polygon points="638.56 548.57 837.57 548.57 904.2 471.8 705.2 471.11 638.56 548.57" style="fill:#1d1d1d"/><polygon points="832.01 349.36 512.06 349.36 584.25 275.57 904.2 275.57 832.01 349.36" style="fill:url(#linear-gradient-9)"/></svg>